<svg xmlns="http://www.w3.org/2000/svg" version="1.1" xmlns:xlink="http://www.w3.org/1999/xlink" xmlns:svgjs="http://svgjs.dev/svgjs" width="1500" height="1500" viewBox="0 0 1500 1500"><rect width="1500" height="1500" fill="#58a399"></rect><g transform="matrix(0.6666666666666666,0,0,0.6666666666666666,249.39393939393938,438.58569500674764)"><svg viewBox="0 0 396 247" data-background-color="#58a399" preserveAspectRatio="xMidYMid meet" height="935" width="1500" xmlns="http://www.w3.org/2000/svg" xmlns:xlink="http://www.w3.org/1999/xlink"><g id="tight-bounds" transform="matrix(1,0,0,1,0.2400000000000091,-0.09999999999999432)"><svg viewBox="0 0 395.52 247.2" height="247.2" width="395.52"><g><svg></svg></g><g><svg viewBox="0 0 395.52 247.2" height="247.2" width="395.52"><g transform="matrix(1,0,0,1,76.98735158140583,47.215199999999996)"><svg viewBox="0 0 241.54529683718832 152.7696" height="152.7696" width="241.54529683718832"><g><svg viewBox="0 0 244.43135999999996 154.59494175051503" height="152.7696" width="241.54529683718832"><g transform="matrix(1,0,0,1,0,93.32480602930895)"><svg viewBox="0 0 244.43135999999996 61.270135721206074" height="61.270135721206074" width="244.43135999999996"><g id="textblocktransform"><svg viewBox="0 0 244.43135999999996 61.270135721206074" height="61.270135721206074" width="244.43135999999996" id="textblock"><g><svg viewBox="0 0 244.43135999999996 36.63853361884368" height="36.63853361884368" width="244.43135999999996"><g transform="matrix(1,0,0,1,0,0)"><svg width="244.43135999999996" viewBox="2.69 -31.74 273.6 41.019999999999996" height="36.63853361884368" data-palette-color="#ffffff"><path d="M32.42-13.18L20.26-13.18 20.26-11.91 24.66-11.91 24.66-4.3Q22.22-1.37 18.12-1.03L18.12-1.03Q17.72-0.98 17.33-0.98L17.33-0.98Q7.62-1.07 7.57-14.65L7.57-14.65Q7.57-26.27 14.6-28.13L14.6-28.13Q15.82-28.42 17.19-28.42L17.19-28.42Q22.22-28.42 24.46-25.63L24.46-25.63Q25.93-23.73 27.1-19.68L27.1-19.68 28.37-19.68 28.13-29.15 23.88-28.27Q20.8-29.79 17.33-29.79L17.33-29.79Q11.47-29.79 7.28-25.93L7.28-25.93Q2.69-21.68 2.69-14.84L2.69-14.84Q2.69-7.03 8.25-2.64L8.25-2.64Q12.3 0.49 17.33 0.49L17.33 0.49Q21 0.49 23.97-1.12L23.97-1.12Q24.37-1.32 24.61-1.51L24.61-1.51 28.76 0 28.76-11.91 32.42-11.91 32.42-13.18ZM52.98 0.49L52.98 0.49Q56.74 0.49 57.13-4.05L57.13-4.05Q57.18-4.35 57.18-4.59L57.18-4.59 55.91-4.64Q55.56-1.07 54-1.03L54-1.03Q52.73-1.12 52.68-3.56L52.68-3.56 52.68-13.87Q52.68-20.85 45.7-21.24L45.7-21.24Q45.26-21.24 44.82-21.24L44.82-21.24Q39.35-21.24 37.5-18.7L37.5-18.7Q36.91-17.87 36.91-17.04L36.91-17.04Q36.91-15.53 38.33-15.28L38.33-15.28Q38.57-15.23 38.82-15.23L38.82-15.23Q39.94-15.23 40.48-16.65L40.48-16.65Q41.16-18.46 41.4-18.8L41.4-18.8Q42.33-20.02 44.28-20.02L44.28-20.02Q48.87-19.73 49.02-14.99L49.02-14.99 49.02-11.91Q37.55-11.91 35.89-7.13L35.89-7.13Q35.59-6.2 35.59-5.13L35.59-5.13Q35.59-1.42 38.86-0.05L38.86-0.05Q40.18 0.49 41.65 0.49L41.65 0.49Q45.21 0.49 47.65-1.95L47.65-1.95Q48.53-2.88 48.97-3.91L48.97-3.91Q49.56 0.44 52.98 0.49ZM43.26-1.46L43.26-1.46Q40.28-1.46 39.6-4.44L39.6-4.44Q39.45-5.13 39.45-5.96L39.45-5.96Q39.45-9.23 43.21-10.11L43.21-10.11Q45.21-10.55 49.02-10.6L49.02-10.6 49.02-6.69Q48.29-3.32 45.46-1.95L45.46-1.95Q44.33-1.46 43.26-1.46ZM68.99-1.22L68.99-1.22 66.35-1.22 66.35-31.74 59.03-31.74 59.03-30.52 62.69-30.52 62.69-4.15Q62.69-1.9 61.42-1.46L61.42-1.46Q60.69-1.22 59.03-1.22L59.03-1.22 59.03 0 70.21 0Q70.21-1.07 69.48-1.17L69.48-1.17Q69.28-1.22 68.99-1.22ZM83.1-1.22L83.1-1.22 80.46-1.22 80.46-31.74 73.14-31.74 73.14-30.52 76.8-30.52 76.8-4.15Q76.8-1.9 75.53-1.46L75.53-1.46Q74.8-1.22 73.14-1.22L73.14-1.22 73.14 0 84.32 0Q84.32-1.07 83.59-1.17L83.59-1.17Q83.39-1.22 83.1-1.22ZM97.79-20.02L97.79-20.02Q101.21-20.02 102.33-17.14L102.33-17.14Q102.72-16.21 102.72-15.14L102.72-15.14Q102.72-12.7 100.38-12.16L100.38-12.16Q99.16-11.91 96.91-11.96L96.91-11.96 91.74-12.11Q91.98-17.72 95.4-19.43L95.4-19.43Q96.52-20.02 97.79-20.02ZM106.29-4.69L106.29-4.69 105.07-5.13Q103.36-1.42 99.55-0.93L99.55-0.93Q99.06-0.88 98.62-0.88L98.62-0.88Q93.5-0.88 92.18-6.98L92.18-6.98Q91.79-8.69 91.74-10.74L91.74-10.74 97.6-10.64Q103.55-10.55 105.26-11.77L105.26-11.77Q106.58-12.74 106.58-14.55L106.58-14.55Q106.58-17.87 103.21-19.82L103.21-19.82Q100.82-21.24 97.7-21.24L97.7-21.24Q91.59-21.24 88.95-16.16L88.95-16.16Q87.59-13.53 87.59-10.21L87.59-10.21Q87.59-4.15 91.93-1.22L91.93-1.22Q94.52 0.49 97.84 0.49L97.84 0.49Q103.12 0.49 105.61-3.32L105.61-3.32Q106-4 106.29-4.69ZM120.69-1.22L120.69-1.22 117.18-1.22 117.18-10.94Q117.18-15.38 119.91-18.07L119.91-18.07Q120.98-19.09 121.72-19.14L121.72-19.14Q122.55-19.14 123.23-17.92L123.23-17.92Q124.01-16.55 124.69-16.36L124.69-16.36Q124.99-16.26 125.28-16.26L125.28-16.26Q126.75-16.26 127.14-17.68L127.14-17.68Q127.23-17.97 127.23-18.26L127.23-18.26Q127.23-20.46 124.99-20.95L124.99-20.95Q124.5-21.04 124.06-21.04L124.06-21.04Q121.13-21.04 118.84-18.55L118.84-18.55Q117.76-17.38 117.13-15.92L117.13-15.92 116.93-20.75 109.85-20.75 109.85-19.53 113.51-19.53 113.51-4.15Q113.51-1.9 112.24-1.46L112.24-1.46Q111.51-1.22 109.85-1.22L109.85-1.22 109.85 0 121.91 0Q121.91-1.07 121.18-1.17L121.18-1.17Q120.98-1.22 120.69-1.22ZM132.5 7.76L132.5 7.76Q131.72 7.76 131.33 6.59L131.33 6.59Q130.8 5.13 130.31 4.79L130.31 4.79Q129.87 4.49 129.28 4.49L129.28 4.49Q127.72 4.49 127.48 5.86L127.48 5.86Q127.43 6.05 127.43 6.2L127.43 6.2Q127.43 8.06 129.57 8.89L129.57 8.89Q130.55 9.28 131.63 9.28L131.63 9.28Q135.48 9.28 138.32 4.54L138.32 4.54Q139.49 2.64 140.56 0L140.56 0 147.79-17.82Q148.28-19.19 148.86-19.38L148.86-19.38Q149.2-19.48 149.64-19.48L149.64-19.48Q150.62-19.48 150.77-20.02L150.77-20.02Q150.86-20.31 150.86-20.75L150.86-20.75 143.44-20.75 143.44-19.48 147.01-19.48 140.76-3.86 134.07-19.48 137.34-19.48 137.34-20.75 127.82-20.75 127.82-19.48 130.21-19.48 139 0Q136.26 6.45 133.87 7.47L133.87 7.47Q133.19 7.76 132.5 7.76ZM189.24-28.03L189.24-29.3 181.43-29.3 170.88-5.42 159.55-29.3 152.57-29.3 152.57-28.03 156.48-28.03 156.48-1.27 152.57-1.27 152.57 0 162.34 0Q162.34-1.07 161.55-1.22L161.55-1.22Q161.31-1.27 161.07-1.27L161.07-1.27 158.43-1.27 158.43-22.27 169.12 0.24 170.15 0.24 181.43-24.9 181.43-1.27 177.52-1.27 177.52 0 189.24 0Q189.24-1.07 188.46-1.22L188.46-1.22Q188.21-1.27 187.97-1.27L187.97-1.27 185.33-1.27 185.33-28.03 189.24-28.03ZM202.86-20.02L202.86-20.02Q206.28-20.02 207.4-17.14L207.4-17.14Q207.79-16.21 207.79-15.14L207.79-15.14Q207.79-12.7 205.45-12.16L205.45-12.16Q204.23-11.91 201.98-11.96L201.98-11.96 196.81-12.11Q197.05-17.72 200.47-19.43L200.47-19.43Q201.59-20.02 202.86-20.02ZM211.36-4.69L211.36-4.69 210.14-5.13Q208.43-1.42 204.62-0.93L204.62-0.93Q204.13-0.88 203.69-0.88L203.69-0.88Q198.56-0.88 197.25-6.98L197.25-6.98Q196.86-8.69 196.81-10.74L196.81-10.74 202.67-10.64Q208.62-10.55 210.33-11.77L210.33-11.77Q211.65-12.74 211.65-14.55L211.65-14.55Q211.65-17.87 208.28-19.82L208.28-19.82Q205.89-21.24 202.76-21.24L202.76-21.24Q196.66-21.24 194.02-16.16L194.02-16.16Q192.66-13.53 192.66-10.21L192.66-10.21Q192.66-4.15 197-1.22L197-1.22Q199.59 0.49 202.91 0.49L202.91 0.49Q208.18 0.49 210.67-3.32L210.67-3.32Q211.06-4 211.36-4.69ZM224.34-1.22L224.34-1.22 222.15-1.22 222.15-11.77Q222.29-16.06 225.12-18.16L225.12-18.16Q226.44-19.14 227.76-19.14L227.76-19.14Q230.2-19.14 231.13-16.46L231.13-16.46Q231.52-15.28 231.52-13.82L231.52-13.82 231.52-4.15Q231.52-1.9 230.45-1.46L230.45-1.46Q229.76-1.22 228.1-1.22L228.1-1.22 228.1 0 238.6 0Q238.6-1.07 237.87-1.17L237.87-1.17Q237.67-1.22 237.38-1.22L237.38-1.22 235.18-1.22 235.18-13.33 235.18-13.72Q235.96-17.29 238.65-18.7L238.65-18.7Q239.67-19.19 240.6-19.19L240.6-19.19Q243.09-19.19 244.12-16.6L244.12-16.6Q244.61-15.38 244.61-13.82L244.61-13.82 244.61-4.15Q244.61-1.9 243.53-1.46L243.53-1.46Q242.85-1.22 241.19-1.22L241.19-1.22 241.19 0 251.98 0Q251.98-1.07 251.25-1.17L251.25-1.17Q251.05-1.22 250.76-1.22L250.76-1.22 248.27-1.22 248.27-13.33Q248.27-18.36 245-20.36L245-20.36Q243.53-21.24 241.82-21.24L241.82-21.24Q238.11-21.24 235.87-17.77L235.87-17.77Q235.28-16.89 234.89-15.92L234.89-15.92Q234.01-19.78 231.03-20.9L231.03-20.9Q230.15-21.24 229.23-21.24L229.23-21.24Q225.71-21.24 223.42-18.26L223.42-18.26Q222.58-17.19 222.1-15.87L222.1-15.87 221.9-20.75 214.82-20.75 214.82-19.53 218.48-19.53 218.48-4.15Q218.48-1.9 217.21-1.46L217.21-1.46Q216.48-1.22 214.82-1.22L214.82-1.22 214.82 0 225.56 0Q225.56-1.03 224.83-1.17L224.83-1.17Q224.59-1.22 224.34-1.22ZM259.3-10.4L259.3-10.4Q259.3-17.97 263.45-19.63L263.45-19.63Q264.53-20.02 265.7-20.02L265.7-20.02Q271.12-20.02 272-13.18L272-13.18Q272.14-12.01 272.14-10.6L272.14-10.6Q272.14-2.39 267.65-0.98L267.65-0.98Q266.77-0.73 265.84-0.73L265.84-0.73Q260.91-0.73 259.64-6.59L259.64-6.59Q259.3-8.3 259.3-10.4ZM265.84-21.24L265.84-21.24Q261.16-21.24 258.03-18.02L258.03-18.02Q255.15-15.04 255.15-10.6L255.15-10.6Q255.15-4.44 259.64-1.37L259.64-1.37Q262.38 0.49 265.7 0.49L265.7 0.49Q270.39 0.49 273.46-2.83L273.46-2.83Q276.29-5.86 276.29-10.4L276.29-10.4Q276.29-16.55 271.75-19.53L271.75-19.53Q269.07-21.24 265.84-21.24Z" opacity="1" transform="matrix(1,0,0,1,0,0)" fill="#ffffff" class="wordmark-text-0" data-fill-palette-color="primary" id="text-0"></path></svg></g></svg></g><g transform="matrix(1,0,0,1,0,45.28801208144582)"><svg viewBox="0 0 244.43135999999996 15.982123639760253" height="15.982123639760253" width="244.43135999999996"><g transform="matrix(1,0,0,1,0,0)"><svg width="244.43135999999996" viewBox="-0.24 -31.74 627.22 41.019999999999996" height="15.982123639760253" data-palette-color="#ffffff"><path d="M28.08 0L28.47 0 38.13-28.03 40.58-28.03 40.58-29.3 32.67-29.3 32.67-28.03 36.57-28.03 28.91-4.98 21.04-28.03 25-28.03 25-29.3 16.6-29.3 19.92-19.92 14.79-5.08 6.54-28.03 10.5-28.03 10.5-29.3-0.24-29.3-0.24-28.03 2.64-28.03 11.62-2.93Q12.6-0.15 13.38 0.15L13.38 0.15Q13.67 0.24 13.96 0.24L13.96 0.24 14.36 0.24 20.7-17.68 25.93-2.93Q26.81-0.44 27.34-0.15L27.34-0.15Q27.64 0 28.08 0L28.08 0ZM51.9-1.22L51.9-1.22 49.46-1.22 49.46-11.77Q49.46-16.21 52.54-18.21L52.54-18.21Q53.81-19.04 55.17-19.04L55.17-19.04Q58.15-19.04 59.32-16.26L59.32-16.26Q59.86-14.94 59.86-13.33L59.86-13.33 59.86-4.15Q59.86-1.9 58.79-1.46L58.79-1.46Q58.1-1.22 56.44-1.22L56.44-1.22 56.44 0 67.19 0Q67.19-1.07 66.45-1.17L66.45-1.17Q66.26-1.22 65.96-1.22L65.96-1.22 63.52-1.22 63.52-13.33Q63.52-18.65 60.01-20.56L60.01-20.56Q58.64-21.24 57.08-21.24L57.08-21.24Q53.46-21.24 51.02-18.6L51.02-18.6Q50-17.48 49.46-16.06L49.46-16.06 49.46-31.74 42.14-31.74 42.14-30.52 45.8-30.52 45.8-4.15Q45.8-1.9 44.53-1.46L44.53-1.46Q43.8-1.22 42.14-1.22L42.14-1.22 42.14 0 53.12 0Q53.12-1.07 52.39-1.17L52.39-1.17Q52.19-1.22 51.9-1.22ZM80.61-20.02L80.61-20.02Q84.03-20.02 85.15-17.14L85.15-17.14Q85.54-16.21 85.54-15.14L85.54-15.14Q85.54-12.7 83.2-12.16L83.2-12.16Q81.98-11.91 79.73-11.96L79.73-11.96 74.56-12.11Q74.8-17.72 78.22-19.43L78.22-19.43Q79.34-20.02 80.61-20.02ZM89.11-4.69L89.11-4.69 87.89-5.13Q86.18-1.42 82.37-0.93L82.37-0.93Q81.88-0.88 81.44-0.88L81.44-0.88Q76.31-0.88 75-6.98L75-6.98Q74.6-8.69 74.56-10.74L74.56-10.74 80.41-10.64Q86.37-10.55 88.08-11.77L88.08-11.77Q89.4-12.74 89.4-14.55L89.4-14.55Q89.4-17.87 86.03-19.82L86.03-19.82Q83.64-21.24 80.51-21.24L80.51-21.24Q74.41-21.24 71.77-16.16L71.77-16.16Q70.41-13.53 70.41-10.21L70.41-10.21Q70.41-4.15 74.75-1.22L74.75-1.22Q77.34 0.49 80.66 0.49L80.66 0.49Q85.93 0.49 88.42-3.32L88.42-3.32Q88.81-4 89.11-4.69ZM103.51-1.22L103.51-1.22 99.99-1.22 99.99-10.94Q99.99-15.38 102.73-18.07L102.73-18.07Q103.8-19.09 104.53-19.14L104.53-19.14Q105.36-19.14 106.05-17.92L106.05-17.92Q106.83-16.55 107.51-16.36L107.51-16.36Q107.81-16.26 108.1-16.26L108.1-16.26Q109.56-16.26 109.95-17.68L109.95-17.68Q110.05-17.97 110.05-18.26L110.05-18.26Q110.05-20.46 107.81-20.95L107.81-20.95Q107.32-21.04 106.88-21.04L106.88-21.04Q103.95-21.04 101.65-18.55L101.65-18.55Q100.58-17.38 99.94-15.92L99.94-15.92 99.75-20.75 92.67-20.75 92.67-19.53 96.33-19.53 96.33-4.15Q96.33-1.9 95.06-1.46L95.06-1.46Q94.33-1.22 92.67-1.22L92.67-1.22 92.67 0 104.73 0Q104.73-1.07 104-1.17L104-1.17Q103.8-1.22 103.51-1.22ZM122.45-20.02L122.45-20.02Q125.87-20.02 126.99-17.14L126.99-17.14Q127.38-16.21 127.38-15.14L127.38-15.14Q127.38-12.7 125.04-12.16L125.04-12.16Q123.82-11.91 121.57-11.96L121.57-11.96 116.4-12.11Q116.64-17.72 120.06-19.43L120.06-19.43Q121.18-20.02 122.45-20.02ZM130.95-4.69L130.95-4.69 129.73-5.13Q128.02-1.42 124.21-0.93L124.21-0.93Q123.72-0.88 123.28-0.88L123.28-0.88Q118.15-0.88 116.84-6.98L116.84-6.98Q116.45-8.69 116.4-10.74L116.4-10.74 122.26-10.64Q128.21-10.55 129.92-11.77L129.92-11.77Q131.24-12.74 131.24-14.55L131.24-14.55Q131.24-17.87 127.87-19.82L127.87-19.82Q125.48-21.24 122.35-21.24L122.35-21.24Q116.25-21.24 113.61-16.16L113.61-16.16Q112.25-13.53 112.25-10.21L112.25-10.21Q112.25-4.15 116.59-1.22L116.59-1.22Q119.18 0.49 122.5 0.49L122.5 0.49Q127.77 0.49 130.26-3.32L130.26-3.32Q130.65-4 130.95-4.69ZM166.2-20.51L167.17-20.51 166.93-29.3 144.42-29.3 144.42-28.03 148.32-28.03 148.32-1.27 144.42-1.27 144.42 0 166.93 0 167.17-8.79 166.2-8.79 165.51-6.49Q164.29-2.34 161.9-1.51L161.9-1.51Q161.17-1.27 160.34-1.27L160.34-1.27 152.52-1.27 152.52-14.4 162.58-14.4 162.58-15.82 152.52-15.82 152.52-28.03 160.34-28.03Q163.85-28.03 165.37-23.29L165.37-23.29Q165.46-23 165.51-22.8L165.51-22.8 166.2-20.51ZM175.81-19.53L179.23-19.53 179.23-20.75 169.76-20.75 169.76-19.53 171.96-19.53 177.91-3.17Q178.89-0.44 180.06 0L180.06 0Q180.65 0.24 181.53 0.24L181.53 0.24 182.16 0.24 189.05-17.82Q189.63-19.34 190.46-19.48L190.46-19.48Q190.71-19.53 190.9-19.53L190.9-19.53Q191.97-19.53 192.07-20.26L192.07-20.26Q192.12-20.51 192.12-20.75L192.12-20.75 184.6-20.75 184.6-19.53 188.26-19.53 182.06-2.88 175.81-19.53ZM204.42-20.02L204.42-20.02Q207.84-20.02 208.96-17.14L208.96-17.14Q209.36-16.21 209.36-15.14L209.36-15.14Q209.36-12.7 207.01-12.16L207.01-12.16Q205.79-11.91 203.54-11.96L203.54-11.96 198.37-12.11Q198.61-17.72 202.03-19.43L202.03-19.43Q203.15-20.02 204.42-20.02ZM212.92-4.69L212.92-4.69 211.7-5.13Q209.99-1.42 206.18-0.93L206.18-0.93Q205.69-0.88 205.25-0.88L205.25-0.88Q200.13-0.88 198.81-6.98L198.81-6.98Q198.42-8.69 198.37-10.74L198.37-10.74 204.23-10.64Q210.19-10.55 211.89-11.77L211.89-11.77Q213.21-12.74 213.21-14.55L213.21-14.55Q213.21-17.87 209.84-19.82L209.84-19.82Q207.45-21.24 204.33-21.24L204.33-21.24Q198.22-21.24 195.59-16.16L195.59-16.16Q194.22-13.53 194.22-10.21L194.22-10.21Q194.22-4.15 198.56-1.22L198.56-1.22Q201.15 0.49 204.47 0.49L204.47 0.49Q209.75 0.49 212.24-3.32L212.24-3.32Q212.63-4 212.92-4.69ZM227.32-1.22L227.32-1.22 223.81-1.22 223.81-10.94Q223.81-15.38 226.54-18.07L226.54-18.07Q227.61-19.09 228.35-19.14L228.35-19.14Q229.18-19.14 229.86-17.92L229.86-17.92Q230.64-16.55 231.33-16.36L231.33-16.36Q231.62-16.26 231.91-16.26L231.91-16.26Q233.38-16.26 233.77-17.68L233.77-17.68Q233.86-17.97 233.86-18.26L233.86-18.26Q233.86-20.46 231.62-20.95L231.62-20.95Q231.13-21.04 230.69-21.04L230.69-21.04Q227.76-21.04 225.47-18.55L225.47-18.55Q224.39-17.38 223.76-15.92L223.76-15.92 223.56-20.75 216.48-20.75 216.48-19.53 220.14-19.53 220.14-4.15Q220.14-1.9 218.87-1.46L218.87-1.46Q218.14-1.22 216.48-1.22L216.48-1.22 216.48 0 228.54 0Q228.54-1.07 227.81-1.17L227.81-1.17Q227.61-1.22 227.32-1.22ZM239.14 7.76L239.14 7.76Q238.35 7.76 237.96 6.59L237.96 6.59Q237.43 5.13 236.94 4.79L236.94 4.79Q236.5 4.49 235.91 4.49L235.91 4.49Q234.35 4.49 234.11 5.86L234.11 5.86Q234.06 6.05 234.06 6.2L234.06 6.2Q234.06 8.06 236.21 8.89L236.21 8.89Q237.18 9.28 238.26 9.28L238.26 9.28Q242.11 9.28 244.95 4.54L244.95 4.54Q246.12 2.64 247.19 0L247.19 0 254.42-17.82Q254.91-19.19 255.49-19.38L255.49-19.38Q255.83-19.48 256.27-19.48L256.27-19.48Q257.25-19.48 257.4-20.02L257.4-20.02Q257.49-20.31 257.49-20.75L257.49-20.75 250.07-20.75 250.07-19.48 253.64-19.48 247.39-3.86 240.7-19.48 243.97-19.48 243.97-20.75 234.45-20.75 234.45-19.48 236.84-19.48 245.63 0Q242.89 6.45 240.5 7.47L240.5 7.47Q239.82 7.76 239.14 7.76ZM277.31-28.03L282.64-28.03Q286.98-28.03 288.25-24.12L288.25-24.12Q288.64-22.85 288.64-21.39L288.64-21.39Q288.64-15.04 282.98-14.4L282.98-14.4Q282.39-14.36 281.81-14.36L281.81-14.36 277.31-14.36 277.31-28.03ZM269.21 0L282.2 0Q282.2-1.07 281.42-1.22L281.42-1.22Q281.17-1.27 280.93-1.27L280.93-1.27 277.31-1.27 277.31-12.94 281.61-12.94Q289.62-12.94 292.21-17.48L292.21-17.48Q293.23-19.19 293.23-21.44L293.23-21.44Q293.23-26.27 289.03-28.22L289.03-28.22Q286.79-29.3 283.66-29.3L283.66-29.3 269.21-29.3 269.21-28.03 273.11-28.03 273.11-1.27 269.21-1.27 269.21 0ZM306.17-1.22L306.17-1.22 303.73-1.22 303.73-20.75 296.16-20.75 296.16-19.53 300.07-19.53 300.07-4.15Q300.07-1.9 298.55-1.42L298.55-1.42Q297.82-1.22 296.16-1.22L296.16-1.22 296.16 0 307.39 0Q307.39-1.07 306.66-1.17L306.66-1.17Q306.41-1.22 306.17-1.22ZM304.31-27.88L304.31-27.88Q304.31-29.59 302.8-30.32L302.8-30.32Q302.21-30.57 301.68-30.57L301.68-30.57Q299.97-30.57 299.24-29L299.24-29Q298.99-28.47 298.99-27.88L298.99-27.88Q298.99-26.07 300.6-25.39L300.6-25.39Q301.14-25.2 301.68-25.2L301.68-25.2Q303.39-25.2 304.07-26.76L304.07-26.76Q304.31-27.29 304.31-27.88ZM308.9 0L308.9 0 316.47 0 316.47-1.22 312.81-1.22 318.62-8.89 323.94-1.22 320.96-1.22 320.96 0 330.04 0Q330.04-1.07 329.31-1.17L329.31-1.17Q329.12-1.22 328.82-1.22L328.82-1.22 327.89-1.22 321.16-11.08 326.19-18.07Q327.11-19.38 328.63-19.58L328.63-19.58Q329.41-19.63 329.55-20.12L329.55-20.12Q329.6-20.36 329.6-20.75L329.6-20.75 322.28-20.75 322.28-19.53 325.7-19.53 320.42-12.21 315.39-19.53 318.62-19.53 318.62-20.75 308.85-20.75 308.85-19.53 311.24-19.53 317.84-10.01 312.22-2.69Q311.24-1.42 309.78-1.22L309.78-1.22Q309.05-1.12 308.95-0.63L308.95-0.63Q308.9-0.34 308.9 0ZM342.2-20.02L342.2-20.02Q345.62-20.02 346.74-17.14L346.74-17.14Q347.13-16.21 347.13-15.14L347.13-15.14Q347.13-12.7 344.79-12.16L344.79-12.16Q343.57-11.91 341.32-11.96L341.32-11.96 336.14-12.11Q336.39-17.72 339.81-19.43L339.81-19.43Q340.93-20.02 342.2-20.02ZM350.69-4.69L350.69-4.69 349.47-5.13Q347.77-1.42 343.96-0.93L343.96-0.93Q343.47-0.88 343.03-0.88L343.03-0.88Q337.9-0.88 336.58-6.98L336.58-6.98Q336.19-8.69 336.14-10.74L336.14-10.74 342-10.64Q347.96-10.55 349.67-11.77L349.67-11.77Q350.99-12.74 350.99-14.55L350.99-14.55Q350.99-17.87 347.62-19.82L347.62-19.82Q345.23-21.24 342.1-21.24L342.1-21.24Q336-21.24 333.36-16.16L333.36-16.16Q331.99-13.53 331.99-10.21L331.99-10.21Q331.99-4.15 336.34-1.22L336.34-1.22Q338.93 0.49 342.25 0.49L342.25 0.49Q347.52 0.49 350.01-3.32L350.01-3.32Q350.4-4 350.69-4.69ZM364.27-1.22L364.27-1.22 361.63-1.22 361.63-31.74 354.31-31.74 354.31-30.52 357.97-30.52 357.97-4.15Q357.97-1.9 356.7-1.46L356.7-1.46Q355.97-1.22 354.31-1.22L354.31-1.22 354.31 0 365.49 0Q365.49-1.07 364.75-1.17L364.75-1.17Q364.56-1.22 364.27-1.22ZM383.5 0L396.93 0Q396.93-1.07 396.15-1.22L396.15-1.22Q395.9-1.27 395.66-1.27L395.66-1.27 392.34-1.27 392.34-28.03 395.17-28.03Q399.12-28.03 400.44-23.24L400.44-23.24Q400.44-23.05 400.49-22.95L400.49-22.95 401.27-19.68 402.64-19.68 402.4-29.3 378.28-29.3 378.03-19.68 379.4-19.68 380.18-22.95Q381.74-27.73 385.5-28.03L385.5-28.03 388.14-28.03 388.14-1.27 383.5-1.27 383.5 0ZM416.51-20.02L416.51-20.02Q419.92-20.02 421.05-17.14L421.05-17.14Q421.44-16.21 421.44-15.14L421.44-15.14Q421.44-12.7 419.09-12.16L419.09-12.16Q417.87-11.91 415.63-11.96L415.63-11.96 410.45-12.11Q410.69-17.72 414.11-19.43L414.11-19.43Q415.24-20.02 416.51-20.02ZM425-4.69L425-4.69 423.78-5.13Q422.07-1.42 418.26-0.93L418.26-0.93Q417.77-0.88 417.34-0.88L417.34-0.88Q412.21-0.88 410.89-6.98L410.89-6.98Q410.5-8.69 410.45-10.74L410.45-10.74 416.31-10.64Q422.27-10.55 423.98-11.77L423.98-11.77Q425.29-12.74 425.29-14.55L425.29-14.55Q425.29-17.87 421.93-19.82L421.93-19.82Q419.53-21.24 416.41-21.24L416.41-21.24Q410.3-21.24 407.67-16.16L407.67-16.16Q406.3-13.53 406.3-10.21L406.3-10.21Q406.3-4.15 410.65-1.22L410.65-1.22Q413.23 0.49 416.55 0.49L416.55 0.49Q421.83 0.49 424.32-3.32L424.32-3.32Q424.71-4 425-4.69ZM438.57-1.22L438.57-1.22 435.94-1.22 435.94-31.74 428.61-31.74 428.61-30.52 432.27-30.52 432.27-4.15Q432.27-1.9 431-1.46L431-1.46Q430.27-1.22 428.61-1.22L428.61-1.22 428.61 0 439.79 0Q439.79-1.07 439.06-1.17L439.06-1.17Q438.87-1.22 438.57-1.22ZM452.68-1.22L452.68-1.22 450.05-1.22 450.05-31.74 442.72-31.74 442.72-30.52 446.38-30.52 446.38-4.15Q446.38-1.9 445.11-1.46L445.11-1.46Q444.38-1.22 442.72-1.22L442.72-1.22 442.72 0 453.9 0Q453.9-1.07 453.17-1.17L453.17-1.17Q452.97-1.22 452.68-1.22ZM464.5-0.83L464.5-0.83Q467.86-0.83 469.04-2.88L469.04-2.88Q469.48-3.61 469.48-4.49L469.48-4.49Q469.48-6.54 466.5-8.01L466.5-8.01Q465.86-8.35 464.4-8.98L464.4-8.98Q460.39-10.64 459.08-12.11L459.08-12.11Q457.66-13.72 457.66-15.87L457.66-15.87Q457.66-19.24 461.37-20.61L461.37-20.61Q463.08-21.24 465.08-21.24L465.08-21.24Q468.3-21.24 470.65-19.87L470.65-19.87Q470.65-21.29 471.33-21.48L471.33-21.48Q471.62-21.53 471.97-21.53L471.97-21.53 471.97-15.43 470.7-15.43Q470.6-19.92 465.72-19.97L465.72-19.97Q462.05-19.97 461.18-17.82L461.18-17.82Q460.93-17.24 460.93-16.6L460.93-16.6Q460.93-14.5 463.96-13.04L463.96-13.04Q464.64-12.7 466.11-12.11L466.11-12.11Q470.06-10.5 471.38-9.03L471.38-9.03Q472.8-7.47 472.8-5.32L472.8-5.32Q472.8-1.37 468.6-0.05L468.6-0.05Q466.99 0.49 465.08 0.49L465.08 0.49Q461.57 0.44 458.98-1.27L458.98-1.27Q458.98 0 458.34 0.2L458.34 0.2Q458.05 0.24 457.66 0.24L457.66 0.24 457.66-7.18 459.03-7.18Q459.12-0.88 464.5-0.83ZM503.36 0.49L503.36 0.49Q507.12 0.49 507.51-4.05L507.51-4.05Q507.56-4.35 507.56-4.59L507.56-4.59 506.29-4.64Q505.95-1.07 504.38-1.03L504.38-1.03Q503.11-1.12 503.07-3.56L503.07-3.56 503.07-13.87Q503.07-20.85 496.08-21.24L496.08-21.24Q495.64-21.24 495.2-21.24L495.2-21.24Q489.73-21.24 487.88-18.7L487.88-18.7Q487.29-17.87 487.29-17.04L487.29-17.04Q487.29-15.53 488.71-15.28L488.71-15.28Q488.95-15.23 489.2-15.23L489.2-15.23Q490.32-15.23 490.86-16.65L490.86-16.65Q491.54-18.46 491.79-18.8L491.79-18.8Q492.71-20.02 494.67-20.02L494.67-20.02Q499.26-19.73 499.4-14.99L499.4-14.99 499.4-11.91Q487.93-11.91 486.27-7.13L486.27-7.13Q485.98-6.2 485.98-5.13L485.98-5.13Q485.98-1.42 489.25-0.05L489.25-0.05Q490.57 0.49 492.03 0.49L492.03 0.49Q495.59 0.49 498.04-1.95L498.04-1.95Q498.91-2.88 499.35-3.91L499.35-3.91Q499.94 0.44 503.36 0.49ZM493.64-1.46L493.64-1.46Q490.66-1.46 489.98-4.44L489.98-4.44Q489.83-5.13 489.83-5.96L489.83-5.96Q489.83-9.23 493.59-10.11L493.59-10.11Q495.59-10.55 499.4-10.6L499.4-10.6 499.4-6.69Q498.67-3.32 495.84-1.95L495.84-1.95Q494.72-1.46 493.64-1.46ZM541.05-7.67L541.05-7.67Q541.05-12.01 536.36-14.65L536.36-14.65Q535.43-15.14 530.65-17.24L530.65-17.24Q526.3-19.09 525.18-21.04L525.18-21.04Q524.59-22.12 524.59-23.34L524.59-23.34Q524.59-26.61 527.77-27.88L527.77-27.88Q529.13-28.42 530.79-28.42L530.79-28.42Q534.9-28.42 537.04-25.63L537.04-25.63Q538.46-23.73 538.41-21L538.41-21 539.88-21 539.88-29.54Q538.7-29.54 538.51-28.81L538.51-28.81Q538.41-28.47 538.41-27.88L538.41-27.88Q534.94-29.79 530.6-29.79L530.6-29.79Q525.33-29.79 522.4-26.86L522.4-26.86Q520.44-24.8 520.44-22.07L520.44-22.07Q520.44-17.97 525.03-15.38L525.03-15.38Q525.86-14.94 530.6-12.89L530.6-12.89Q534.99-10.94 536.17-8.94L536.17-8.94Q536.8-7.81 536.8-6.49L536.8-6.49Q536.8-3.08 533.48-1.56L533.48-1.56Q531.92-0.88 530.01-0.88L530.01-0.88Q522.54-0.98 521.71-10.01L521.71-10.01 520.25-10.01 520.25 0.1Q521.42 0.1 521.61-0.59L521.61-0.59Q521.71-0.98 521.71-2L521.71-2Q525.47 0.49 530.26 0.49L530.26 0.49Q535.87 0.49 538.95-2.54L538.95-2.54Q541.05-4.69 541.05-7.67ZM544.46-20.75L544.46-19.53 547.88-19.53 547.88-5.76Q548.22 0.34 553.5 0.54L553.5 0.54Q557.99 0.54 559.11-4.98L559.11-4.98Q559.11-5.03 559.11-5.08L559.11-5.08 557.79-5.32Q556.57-1.27 554.23-0.93L554.23-0.93Q551.59-1.03 551.54-4.69L551.54-4.69 551.54-19.53 559.11-19.53 559.11-20.75 551.54-20.75 551.54-26.42 547.88-25.39 547.88-20.75 544.46-20.75ZM565.46-10.4L565.46-10.4Q565.46-17.97 569.61-19.63L569.61-19.63Q570.68-20.02 571.85-20.02L571.85-20.02Q577.27-20.02 578.15-13.18L578.15-13.18Q578.3-12.01 578.3-10.6L578.3-10.6Q578.3-2.39 573.81-0.98L573.81-0.98Q572.93-0.73 572-0.73L572-0.73Q567.07-0.73 565.8-6.59L565.8-6.59Q565.46-8.3 565.46-10.4ZM572-21.24L572-21.24Q567.31-21.24 564.19-18.02L564.19-18.02Q561.31-15.04 561.31-10.6L561.31-10.6Q561.31-4.44 565.8-1.37L565.8-1.37Q568.53 0.49 571.85 0.49L571.85 0.49Q576.54 0.49 579.62-2.83L579.62-2.83Q582.45-5.86 582.45-10.4L582.45-10.4Q582.45-16.55 577.91-19.53L577.91-19.53Q575.22-21.24 572-21.24ZM596.8-1.22L596.8-1.22 593.29-1.22 593.29-10.94Q593.29-15.38 596.02-18.07L596.02-18.07Q597.1-19.09 597.83-19.14L597.83-19.14Q598.66-19.14 599.34-17.92L599.34-17.92Q600.12-16.55 600.81-16.36L600.81-16.36Q601.1-16.26 601.39-16.26L601.39-16.26Q602.86-16.26 603.25-17.68L603.25-17.68Q603.35-17.97 603.35-18.26L603.35-18.26Q603.35-20.46 601.1-20.95L601.1-20.95Q600.61-21.04 600.17-21.04L600.17-21.04Q597.24-21.04 594.95-18.55L594.95-18.55Q593.87-17.38 593.24-15.92L593.24-15.92 593.04-20.75 585.96-20.75 585.96-19.53 589.62-19.53 589.62-4.15Q589.62-1.9 588.36-1.46L588.36-1.46Q587.62-1.22 585.96-1.22L585.96-1.22 585.96 0 598.02 0Q598.02-1.07 597.29-1.17L597.29-1.17Q597.1-1.22 596.8-1.22ZM608.62 7.76L608.62 7.76Q607.84 7.76 607.44 6.59L607.44 6.59Q606.91 5.13 606.42 4.79L606.42 4.79Q605.98 4.49 605.39 4.49L605.39 4.49Q603.83 4.49 603.59 5.86L603.59 5.86Q603.54 6.05 603.54 6.2L603.54 6.2Q603.54 8.06 605.69 8.89L605.69 8.89Q606.66 9.28 607.74 9.28L607.74 9.28Q611.59 9.28 614.43 4.54L614.43 4.54Q615.6 2.64 616.67 0L616.67 0 623.9-17.82Q624.39-19.19 624.97-19.38L624.97-19.38Q625.32-19.48 625.76-19.48L625.76-19.48Q626.73-19.48 626.88-20.02L626.88-20.02Q626.98-20.31 626.98-20.75L626.98-20.75 619.55-20.75 619.55-19.48 623.12-19.48 616.87-3.86 610.18-19.48 613.45-19.48 613.45-20.75 603.93-20.75 603.93-19.48 606.32-19.48 615.11 0Q612.38 6.45 609.98 7.47L609.98 7.47Q609.3 7.76 608.62 7.76Z" opacity="1" transform="matrix(1,0,0,1,0,0)" fill="#ffffff" class="slogan-text-1" data-fill-palette-color="secondary" id="text-1"></path></svg></g></svg></g></svg></g></svg></g><g transform="matrix(1,0,0,1,61.76247269205561,0)"><svg viewBox="0 0 120.90641461588874 84.6753275667068" height="84.6753275667068" width="120.90641461588874"><g><svg xmlns="http://www.w3.org/2000/svg" xmlns:xlink="http://www.w3.org/1999/xlink" version="1.1" x="0" y="0" viewBox="2 16.859 95.334 66.76599999999999" enable-background="new 0 0 100 100" xml:space="preserve" height="84.6753275667068" width="120.90641461588874" class="icon-icon-0" data-fill-palette-color="accent" id="icon-0"><g fill="#496989" data-fill-palette-color="accent"><path d="M71.546 26.437L71.546 26.437l-4.908-9.578H32.695l-4.908 9.578 0 0H2v56.331h30.89v-0.072c-3.427-2.495-6.281-5.729-8.316-9.476H11.548l0 0V35.985l0 0h22.075l4.908-9.578 0 0h22.271l0 0 4.909 9.578h22.074l0 0v37.234l0 0H74.759c-2.035 3.747-4.889 6.981-8.315 9.476v0.072h30.89V26.437H71.546z" fill="#496989" data-fill-palette-color="accent"></path><path d="M73.676 59.616c0-13.239-10.771-24.01-24.009-24.01-13.239 0-24.009 10.771-24.009 24.01 0 13.239 10.77 24.009 24.009 24.009C62.905 83.625 73.676 72.855 73.676 59.616zM49.667 74.077c-7.974 0-14.462-6.488-14.462-14.461s6.488-14.461 14.462-14.461c7.974 0 14.461 6.487 14.461 14.461S57.641 74.077 49.667 74.077z" fill="#496989" data-fill-palette-color="accent"></path></g></svg></g></svg></g><g></g></svg></g></svg></g><g><path d="M111.896 38.668A120.773 120.773 0 0 1 283.624 38.668L280.359 38.668A117.508 117.508 0 0 0 115.161 38.668L111.896 38.668M111.896 208.532A120.773 120.773 0 0 0 283.624 208.532L280.359 208.532A117.508 117.508 0 0 1 115.161 208.532L111.896 208.532" fill="#ffffff" stroke="transparent" data-fill-palette-color="tertiary"></path></g></svg></g><defs></defs></svg><rect width="395.52" height="247.2" fill="none" stroke="none" visibility="hidden"></rect></g></svg></g></svg>